<?xml version="1.0" standalone="no"?>
<!DOCTYPE svg PUBLIC "-//W3C//DTD SVG 20010904//EN"
 "http://www.w3.org/TR/2001/REC-SVG-20010904/DTD/svg10.dtd">
<svg version="1.0" xmlns="http://www.w3.org/2000/svg"
 width="512.000000pt" height="512.000000pt" viewBox="0 0 512.000000 512.000000"
 preserveAspectRatio="xMidYMid meet">

<g transform="translate(0.000000,512.000000) scale(0.100000,-0.100000)"
fill="#000000" stroke="none">
<path d="M3369 4542 c-421 -246 -775 -454 -787 -462 -21 -14 -5 -25 360 -235
210 -121 387 -221 393 -223 6 -1 157 82 335 186 179 103 471 273 650 377 532
308 612 357 603 364 -4 4 -66 41 -138 83 -515 297 -624 358 -636 357 -8 0
-359 -202 -780 -447z"/>
<path d="M4935 4456 c-253 -150 -1575 -916 -1587 -921 -7 -3 -218 114 -468
260 l-455 265 -5 -76 -5 -76 -152 -86 -152 -87 -1 -498 c0 -424 2 -498 14
-503 8 -3 87 36 176 87 l160 92 33 -18 c31 -16 35 -16 58 -2 24 16 29 14 169
-66 l145 -83 5 -224 c4 -201 7 -225 22 -228 9 -2 88 38 175 88 176 102 150 97
241 43 28 -16 30 -16 85 16 41 24 64 45 83 79 26 47 41 56 696 437 369 215
686 398 705 408 32 17 36 17 59 2 24 -15 27 -15 79 15 48 28 55 35 55 63 0 18
3 272 6 565 4 292 5 532 3 531 -2 0 -67 -38 -144 -83z m-1893 -913 c74 -43 98
-62 98 -78 0 -16 -29 -37 -125 -93 -69 -39 -131 -72 -137 -72 -7 0 -28 9 -46
20 -36 22 -42 24 -42 12 0 -5 18 -18 40 -31 l40 -22 0 -185 0 -185 -30 18
c-16 9 -30 21 -30 25 0 4 -6 8 -14 8 -8 0 -59 26 -115 58 l-101 57 2 115 3
114 70 41 70 41 3 51 3 50 97 56 c53 31 101 57 106 57 5 0 53 -26 108 -57z
m295 -816 c-1 -89 -3 -13 -3 168 0 182 2 254 3 162 2 -93 2 -241 0 -330z
m-624 213 c104 -60 147 -89 147 -102 0 -16 -5 -15 -48 9 -27 16 -103 60 -170
98 -84 48 -122 76 -122 88 0 21 -20 30 193 -93z"/>
<path d="M2640 3152 c0 -6 21 -22 46 -36 25 -14 44 -20 42 -13 -6 16 -88 62
-88 49z"/>
<path d="M1420 3970 c-8 -5 -12 -11 -10 -13 3 -2 65 -39 138 -82 127 -74 132
-78 132 -110 0 -28 3 -32 20 -28 16 4 20 14 20 47 l0 42 -133 77 c-74 42 -138
77 -143 77 -5 0 -16 -4 -24 -10z"/>
<path d="M1693 3666 c-29 -17 -53 -37 -53 -44 0 -10 15 -5 48 13 57 33 65 41
61 52 -2 5 -28 -4 -56 -21z"/>
<path d="M1840 3615 c0 -14 7 -28 15 -31 10 -4 15 -20 15 -49 0 -42 0 -43 25
-32 21 10 25 19 25 54 0 40 -3 44 -40 63 l-40 20 0 -25z"/>
<path d="M1295 3556 c-20 -14 -32 -6 177 -126 76 -44 78 -46 78 -84 0 -31 3
-36 13 -27 8 6 17 8 20 4 4 -3 7 14 7 39 l0 46 -117 68 c-65 37 -127 74 -139
81 -17 11 -24 11 -39 -1z"/>
<path d="M1893 3438 c-29 -17 -53 -37 -53 -45 0 -11 10 -8 43 12 23 14 48 29
56 34 7 5 12 13 10 18 -2 6 -27 -3 -56 -19z"/>
<path d="M1563 3249 c-29 -17 -53 -37 -53 -45 0 -15 112 46 118 65 6 17 -9 13
-65 -20z"/>
<path d="M4195 2834 c-14 -10 -16 -17 -8 -22 6 -4 86 -50 177 -102 l166 -95 0
-60 c1 -56 2 -59 16 -40 8 11 22 19 30 17 11 -2 14 10 14 56 l0 58 -176 102
c-97 56 -181 102 -187 102 -7 0 -21 -7 -32 -16z"/>
<path d="M4558 2438 c-45 -26 -68 -46 -68 -58 0 -16 10 -13 73 24 39 23 73 50
75 59 5 23 -3 21 -80 -25z"/>
<path d="M4951 2131 c-9 -6 -11 -18 -5 -42 l7 -34 9 33 c11 41 8 54 -11 43z"/>
<path d="M518 2062 c-65 -30 -118 -58 -118 -61 1 -5 1823 -1060 1826 -1057 1
1 4 54 8 118 l6 118 -86 -51 c-47 -28 -93 -49 -102 -46 -10 3 -327 184 -707
404 l-690 399 0 117 c0 72 -4 117 -10 116 -5 0 -63 -26 -127 -57z"/>
<path d="M4859 2068 c-1 -7 0 -23 0 -35 1 -11 -3 -24 -8 -28 -7 -4 -11 6 -11
26 0 18 -3 29 -7 25 -4 -4 -8 -22 -8 -41 0 -27 3 -32 16 -24 9 4 18 6 21 4 2
-3 5 16 7 40 1 25 -1 45 -4 45 -3 0 -5 -6 -6 -12z"/>
<path d="M4592 1933 c-10 -10 -12 -25 -7 -51 l8 -37 9 34 c5 18 8 41 6 51 -3
16 -5 16 -16 3z"/>
<path d="M4490 1835 c0 -19 -5 -35 -11 -35 -7 0 -9 10 -7 25 3 14 1 25 -4 25
-5 0 -8 -16 -6 -35 2 -38 5 -41 28 -22 16 13 24 77 9 77 -5 0 -9 -16 -9 -35z"/>
<path d="M269 1839 c-38 -22 -65 -60 -79 -110 -8 -26 -5 -31 18 -43 23 -12 29
-25 40 -81 28 -150 131 -280 250 -316 41 -12 45 -11 122 29 l79 41 16 -56 c24
-83 51 -130 107 -189 56 -59 118 -94 166 -94 20 0 65 19 117 48 69 38 82 49
70 58 -9 7 -15 27 -15 50 -1 125 -91 288 -205 369 -84 60 -190 67 -248 17 -9
-8 -18 -13 -20 -11 -2 2 -18 34 -36 72 -41 85 -126 178 -193 211 -66 33 -138
34 -189 5z m169 -108 c103 -53 191 -228 163 -322 -13 -43 -53 -79 -88 -79 -67
0 -177 101 -212 196 -60 160 13 269 137 205z m451 -261 c54 -27 126 -112 150
-176 35 -91 22 -200 -24 -218 -56 -21 -128 6 -183 69 -98 112 -125 264 -57
323 32 27 64 28 114 2z"/>
<path d="M390 1701 c0 -51 63 -114 89 -88 18 18 13 46 -15 72 -26 24 -74 34
-74 16z"/>
<path d="M320 1685 c-20 -24 -16 -76 5 -91 45 -33 77 3 50 56 -22 42 -40 53
-55 35z"/>
<path d="M435 1590 c3 -5 8 -10 11 -10 2 0 4 5 4 10 0 6 -5 10 -11 10 -5 0 -7
-4 -4 -10z"/>
<path d="M503 1539 c6 -45 31 -79 59 -79 23 0 23 26 2 80 -13 32 -21 40 -41
40 -24 0 -25 -2 -20 -41z"/>
<path d="M426 1561 c-9 -14 4 -41 20 -41 8 0 14 6 14 14 0 18 -26 40 -34 27z"/>
<path d="M334 1525 c-7 -16 24 -71 55 -99 19 -17 20 -17 30 2 12 23 7 44 -21
85 -21 29 -55 36 -64 12z"/>
<path d="M460 1427 c0 -52 48 -85 78 -55 7 7 12 19 12 28 0 23 -42 60 -68 60
-18 0 -22 -6 -22 -33z"/>
<path d="M850 1435 c0 -26 29 -74 51 -85 58 -31 67 39 10 77 -40 27 -61 29
-61 8z"/>
<path d="M769 1406 c-7 -14 -9 -35 -6 -49 7 -24 51 -52 68 -42 15 10 10 64 -7
90 -21 32 -41 32 -55 1z"/>
<path d="M890 1331 c0 -5 5 -13 10 -16 6 -3 10 -2 10 4 0 5 -4 13 -10 16 -5 3
-10 2 -10 -4z"/>
<path d="M850 1320 c0 -5 5 -10 11 -10 5 0 7 5 4 10 -3 6 -8 10 -11 10 -2 0
-4 -4 -4 -10z"/>
<path d="M967 1313 c-17 -16 -5 -65 22 -95 23 -26 32 -30 42 -21 10 10 10 21
0 55 -18 61 -42 84 -64 61z"/>
<path d="M880 1286 c0 -16 28 -42 36 -33 3 3 3 15 -1 26 -7 23 -35 29 -35 7z"/>
<path d="M803 1273 c-21 -8 -15 -38 17 -81 43 -60 61 -56 58 13 -1 30 -5 49
-9 44 -5 -8 -9 -8 -13 0 -10 16 -39 29 -53 24z"/>
<path d="M924 1186 c-9 -24 0 -68 17 -79 23 -15 69 0 69 22 0 23 -44 71 -65
71 -9 0 -18 -6 -21 -14z"/>
<path d="M2468 1723 c-72 -42 -78 -47 -76 -77 l1 -31 4 30 c3 26 15 36 76 70
39 22 75 41 79 43 3 2 8 -9 11 -25 4 -27 4 -27 6 5 0 20 -4 32 -11 31 -7 -1
-48 -21 -90 -46z"/>
<path d="M2478 1699 c-25 -18 -38 -49 -22 -49 15 0 64 43 64 56 0 19 -10 17
-42 -7z"/>
<path d="M3973 1658 c-13 -6 -23 -15 -23 -20 0 -5 9 -4 19 2 33 17 41 12 41
-26 0 -32 -21 -70 -32 -59 -7 8 -9 -78 -3 -117 l7 -38 39 22 40 22 -3 76 c-3
65 -5 75 -20 72 -15 -2 -18 5 -18 38 0 42 -8 47 -47 28z"/>
<path d="M2245 1592 l-80 -47 -3 -89 c-4 -115 -1 -121 37 -101 16 8 33 19 36
25 3 5 -10 1 -29 -11 l-36 -21 0 96 0 95 78 45 77 45 6 -27 c6 -26 7 -26 8 6
0 17 -2 32 -6 32 -5 0 -44 -21 -88 -48z"/>
<path d="M3858 1622 c-16 -10 -28 -26 -28 -37 -1 -11 -18 -148 -39 -305 -21
-157 -37 -286 -36 -288 1 -1 47 24 101 56 83 49 99 62 99 83 -1 47 -60 509
-65 508 -3 0 -17 -8 -32 -17z"/>
<path d="M2276 1575 c-11 -30 -6 -40 11 -22 12 12 14 20 6 28 -7 7 -12 6 -17
-6z"/>
<path d="M2207 1528 c-3 -13 -2 -45 2 -71 4 -26 4 -50 -1 -53 -4 -3 -8 -10 -8
-15 0 -5 12 -2 26 7 17 11 21 19 14 24 -7 4 -11 28 -10 56 2 27 2 55 1 62 -2
20 -18 14 -24 -10z"/>
<path d="M3685 1520 c-27 -16 -53 -31 -58 -32 -8 -4 -90 -608 -83 -615 6 -7
126 66 126 76 0 12 69 543 75 574 6 34 2 34 -60 -3z"/>
<path d="M2332 1253 l3 -137 48 -28 47 -27 0 137 0 137 -45 28 c-25 15 -48 27
-51 27 -2 0 -3 -62 -2 -137z"/>
<path d="M3140 1204 c-118 -69 -219 -129 -224 -134 -8 -8 48 -517 58 -527 2
-3 71 34 153 81 l148 86 41 307 c23 170 41 309 40 310 -1 1 -98 -55 -216 -123z"/>
<path d="M2520 1166 c0 -122 9 -176 30 -176 5 0 34 49 65 109 l54 110 -67 37
c-37 20 -70 39 -74 41 -5 2 -8 -52 -8 -121z"/>
<path d="M2676 1049 c-46 -88 -55 -113 -45 -120 8 -5 16 -9 19 -9 7 0 115 212
115 225 0 5 -7 11 -15 12 -10 2 -34 -34 -74 -108z"/>
<path d="M2731 1016 c-29 -58 -50 -109 -47 -114 3 -5 19 -15 36 -22 l30 -12 0
-84 c0 -50 4 -84 10 -84 6 0 28 11 50 25 l40 25 0 75 c0 60 -3 75 -15 75 -8 0
-15 6 -15 13 0 6 -3 22 -6 33 -4 17 1 26 25 40 40 23 41 40 1 19 l-29 -15 -6
37 c-16 101 -15 102 -74 -11z"/>
<path d="M3945 1035 c-25 -15 -33 -24 -22 -25 15 0 19 -7 19 -30 0 -3 -3 -15
-7 -28 -7 -23 -7 -23 24 -7 28 14 31 20 31 65 0 28 -1 50 -2 50 -2 0 -21 -11
-43 -25z"/>
<path d="M2330 966 c0 -53 1 -54 44 -80 25 -14 47 -26 50 -26 3 0 6 24 6 54 0
53 -1 54 -44 80 -25 14 -47 26 -50 26 -3 0 -6 -24 -6 -54z"/>
<path d="M3877 998 c-16 -13 -47 -87 -47 -115 0 -11 8 -10 38 8 52 31 57 37
28 32 -22 -5 -26 -2 -26 19 0 13 7 34 16 46 17 25 15 27 -9 10z"/>
<path d="M3526 776 c-127 -73 -232 -138 -234 -145 -7 -20 31 -81 50 -81 20 0
322 171 354 201 19 18 71 145 63 153 -2 2 -107 -55 -233 -128z m27 -40 c8 -21
-17 -61 -41 -64 -17 -3 -22 2 -22 19 0 41 51 78 63 45z"/>
<path d="M3504 595 l-522 -304 -150 87 c-145 83 -153 90 -201 158 -63 90 -104
124 -266 217 l-130 75 -3 -176 c-2 -148 0 -179 13 -188 8 -6 23 -38 34 -72 26
-83 60 -139 120 -195 93 -87 146 -96 249 -40 l68 36 126 -72 c70 -40 133 -71
141 -69 8 1 246 138 530 303 l517 300 0 123 c0 67 -1 122 -2 121 -2 0 -238
-137 -524 -304z m449 95 c-4 -4 -29 -19 -55 -34 l-48 -27 0 39 c0 35 4 40 53
68 l52 30 3 -34 c2 -19 0 -38 -5 -42z m-273 -118 c0 -53 -4 -72 -17 -84 -18
-15 -210 -128 -219 -128 -2 0 -4 33 -4 74 l0 74 113 66 c61 36 115 66 120 66
4 0 7 -31 7 -68z m-1235 -1 c55 -25 129 -110 154 -177 13 -33 21 -79 21 -115
0 -51 -4 -64 -26 -86 -22 -22 -32 -25 -74 -21 -114 11 -220 156 -220 301 0 51
4 62 29 88 34 33 60 36 116 10z m778 -301 c-4 -4 -29 -19 -55 -34 l-48 -27 0
39 c0 35 4 40 53 68 l52 30 3 -34 c2 -19 0 -38 -5 -42z"/>
<path d="M2414 518 c7 -37 50 -81 75 -76 10 2 16 13 16 33 0 22 -8 35 -34 52
-49 33 -65 31 -57 -9z"/>
<path d="M2329 503 c-5 -15 -8 -37 -5 -48 6 -23 51 -49 67 -40 15 10 10 64 -7
90 -21 33 -42 32 -55 -2z"/>
<path d="M2455 420 c3 -5 8 -10 11 -10 2 0 4 5 4 10 0 6 -5 10 -11 10 -5 0 -7
-4 -4 -10z"/>
<path d="M2527 413 c-17 -16 -5 -65 22 -95 23 -26 32 -30 42 -21 10 10 10 21
0 55 -18 61 -42 84 -64 61z"/>
<path d="M2440 387 c0 -18 28 -42 37 -33 9 8 -9 38 -25 44 -7 2 -12 -3 -12
-11z"/>
<path d="M2350 352 c0 -26 57 -102 75 -102 12 0 15 12 13 55 -1 30 -5 50 -9
44 -3 -6 -11 -4 -19 6 -18 22 -60 20 -60 -3z"/>
<path d="M2487 293 c-13 -12 -7 -70 7 -82 23 -19 70 -10 74 15 5 36 -59 90
-81 67z"/>
<path d="M3155 580 c-3 -5 -1 -10 4 -10 15 0 14 -63 -1 -79 -9 -9 -2 -8 19 3
43 21 47 30 28 66 -15 30 -38 39 -50 20z"/>
<path d="M3088 542 c-24 -14 -28 -23 -28 -64 0 -27 2 -48 5 -48 2 0 18 8 35
19 24 14 28 20 16 24 -18 7 -21 39 -6 68 13 23 12 23 -22 1z"/>
</g>
</svg>
